<svg width="269" height="72" viewBox="0 0 269 72" fill="none" xmlns="http://www.w3.org/2000/svg">
<rect width="269" height="72" rx="36" fill="#5B7CFF"/>
<path d="M58.2256 45.26C56.8043 45.26 55.4436 45.0607 54.1436 44.662C52.8436 44.246 51.8123 43.7173 51.0496 43.076L52.2196 40.45C52.9476 41.022 53.849 41.4987 54.9236 41.88C55.9983 42.2613 57.099 42.452 58.2256 42.452C59.179 42.452 59.9503 42.348 60.5396 42.14C61.129 41.932 61.5623 41.6547 61.8396 41.308C62.117 40.944 62.2556 40.5367 62.2556 40.086C62.2556 39.5313 62.0563 39.0893 61.6576 38.76C61.259 38.4133 60.739 38.1447 60.0976 37.954C59.4736 37.746 58.7716 37.5553 57.9916 37.382C57.229 37.2087 56.4576 37.0093 55.6776 36.784C54.915 36.5413 54.213 36.238 53.5716 35.874C52.9476 35.4927 52.4363 34.99 52.0376 34.366C51.639 33.742 51.4396 32.9447 51.4396 31.974C51.4396 30.986 51.6996 30.0847 52.2196 29.27C52.757 28.438 53.563 27.7793 54.6376 27.294C55.7296 26.7913 57.1076 26.54 58.7716 26.54C59.8636 26.54 60.947 26.6787 62.0216 26.956C63.0963 27.2333 64.0323 27.632 64.8296 28.152L63.7636 30.778C62.949 30.2927 62.1083 29.9373 61.2416 29.712C60.375 29.4693 59.543 29.348 58.7456 29.348C57.8096 29.348 57.047 29.4607 56.4576 29.686C55.8856 29.9113 55.461 30.206 55.1836 30.57C54.9236 30.934 54.7936 31.35 54.7936 31.818C54.7936 32.3727 54.9843 32.8233 55.3656 33.17C55.7643 33.4993 56.2756 33.7593 56.8996 33.95C57.541 34.1407 58.2516 34.3313 59.0316 34.522C59.8116 34.6953 60.583 34.8947 61.3456 35.12C62.1256 35.3453 62.8276 35.64 63.4516 36.004C64.093 36.368 64.6043 36.862 64.9856 37.486C65.3843 38.11 65.5836 38.8987 65.5836 39.852C65.5836 40.8227 65.315 41.724 64.7776 42.556C64.2576 43.3707 63.4516 44.0293 62.3596 44.532C61.2676 45.0173 59.8896 45.26 58.2256 45.26ZM73.8492 45.182C72.3239 45.182 71.1452 44.792 70.3132 44.012C69.4812 43.2147 69.0652 42.0447 69.0652 40.502V28.048H72.3152V40.424C72.3152 41.0827 72.4799 41.594 72.8092 41.958C73.1559 42.322 73.6325 42.504 74.2392 42.504C74.9672 42.504 75.5739 42.3133 76.0592 41.932L76.9692 44.246C76.5879 44.558 76.1199 44.792 75.5652 44.948C75.0105 45.104 74.4385 45.182 73.8492 45.182ZM66.7772 33.82V31.22H76.0332V33.82H66.7772ZM88.1967 45V42.192L88.0147 41.594V36.68C88.0147 35.7267 87.7287 34.99 87.1567 34.47C86.5847 33.9327 85.7181 33.664 84.5567 33.664C83.7767 33.664 83.0054 33.7853 82.2427 34.028C81.4974 34.2707 80.8647 34.6087 80.3447 35.042L79.0707 32.676C79.8161 32.104 80.7001 31.6793 81.7227 31.402C82.7627 31.1073 83.8374 30.96 84.9467 30.96C86.9574 30.96 88.5087 31.4453 89.6007 32.416C90.7101 33.3693 91.2647 34.8513 91.2647 36.862V45H88.1967ZM83.8287 45.182C82.7887 45.182 81.8787 45.0087 81.0987 44.662C80.3187 44.298 79.7121 43.804 79.2787 43.18C78.8627 42.5387 78.6547 41.8193 78.6547 41.022C78.6547 40.242 78.8367 39.54 79.2007 38.916C79.5821 38.292 80.1974 37.798 81.0467 37.434C81.8961 37.07 83.0227 36.888 84.4267 36.888H88.4567V39.046H84.6607C83.5514 39.046 82.8061 39.228 82.4247 39.592C82.0434 39.9387 81.8527 40.372 81.8527 40.892C81.8527 41.4813 82.0867 41.9493 82.5547 42.296C83.0227 42.6427 83.6727 42.816 84.5047 42.816C85.3021 42.816 86.0127 42.634 86.6367 42.27C87.2781 41.906 87.7374 41.3687 88.0147 40.658L88.5607 42.608C88.2487 43.4227 87.6854 44.0553 86.8707 44.506C86.0734 44.9567 85.0594 45.182 83.8287 45.182ZM95.4357 45V31.116H98.5297V34.938L98.1657 33.82C98.5817 32.884 99.2317 32.1733 100.116 31.688C101.017 31.2027 102.135 30.96 103.47 30.96V34.054C103.331 34.0193 103.201 34.002 103.08 34.002C102.958 33.9847 102.837 33.976 102.716 33.976C101.485 33.976 100.506 34.34 99.7777 35.068C99.0497 35.7787 98.6857 36.8447 98.6857 38.266V45H95.4357ZM111.961 45.182C110.435 45.182 109.257 44.792 108.425 44.012C107.593 43.2147 107.177 42.0447 107.177 40.502V28.048H110.427V40.424C110.427 41.0827 110.591 41.594 110.921 41.958C111.267 42.322 111.744 42.504 112.351 42.504C113.079 42.504 113.685 42.3133 114.171 41.932L115.081 44.246C114.699 44.558 114.231 44.792 113.677 44.948C113.122 45.104 112.55 45.182 111.961 45.182ZM104.889 33.82V31.22H114.145V33.82H104.889ZM125.252 45V26.8H132.74C134.352 26.8 135.73 27.06 136.874 27.58C138.035 28.1 138.928 28.8453 139.552 29.816C140.176 30.7867 140.488 31.9393 140.488 33.274C140.488 34.6087 140.176 35.7613 139.552 36.732C138.928 37.7027 138.035 38.448 136.874 38.968C135.73 39.488 134.352 39.748 132.74 39.748H127.124L128.632 38.162V45H125.252ZM128.632 38.526L127.124 36.888H132.584C134.074 36.888 135.192 36.576 135.938 35.952C136.7 35.3107 137.082 34.418 137.082 33.274C137.082 32.1127 136.7 31.22 135.938 30.596C135.192 29.972 134.074 29.66 132.584 29.66H127.124L128.632 27.996V38.526ZM143.424 45V31.116H146.518V34.938L146.154 33.82C146.57 32.884 147.22 32.1733 148.104 31.688C149.005 31.2027 150.123 30.96 151.458 30.96V34.054C151.319 34.0193 151.189 34.002 151.068 34.002C150.947 33.9847 150.825 33.976 150.704 33.976C149.473 33.976 148.494 34.34 147.766 35.068C147.038 35.7787 146.674 36.8447 146.674 38.266V45H143.424ZM160.328 45.182C158.907 45.182 157.641 44.8787 156.532 44.272C155.423 43.648 154.547 42.7987 153.906 41.724C153.265 40.6493 152.944 39.4273 152.944 38.058C152.944 36.6713 153.265 35.4493 153.906 34.392C154.547 33.3173 155.423 32.4767 156.532 31.87C157.641 31.2633 158.907 30.96 160.328 30.96C161.767 30.96 163.041 31.2633 164.15 31.87C165.277 32.4767 166.152 33.3087 166.776 34.366C167.417 35.4233 167.738 36.654 167.738 38.058C167.738 39.4273 167.417 40.6493 166.776 41.724C166.152 42.7987 165.277 43.648 164.15 44.272C163.041 44.8787 161.767 45.182 160.328 45.182ZM160.328 42.4C161.125 42.4 161.836 42.2267 162.46 41.88C163.084 41.5333 163.569 41.0307 163.916 40.372C164.28 39.7133 164.462 38.942 164.462 38.058C164.462 37.1567 164.28 36.3853 163.916 35.744C163.569 35.0853 163.084 34.5827 162.46 34.236C161.836 33.8893 161.134 33.716 160.354 33.716C159.557 33.716 158.846 33.8893 158.222 34.236C157.615 34.5827 157.13 35.0853 156.766 35.744C156.402 36.3853 156.22 37.1567 156.22 38.058C156.22 38.942 156.402 39.7133 156.766 40.372C157.13 41.0307 157.615 41.5333 158.222 41.88C158.846 42.2267 159.548 42.4 160.328 42.4ZM169.416 50.226C168.809 50.226 168.237 50.1567 167.7 50.018C167.145 49.8967 166.677 49.6973 166.296 49.42L167.232 47.002C167.735 47.366 168.367 47.548 169.13 47.548C169.719 47.548 170.179 47.3573 170.508 46.976C170.837 46.612 171.002 46.066 171.002 45.338V31.116H174.252V45.26C174.252 46.7853 173.827 47.99 172.978 48.874C172.146 49.7753 170.959 50.226 169.416 50.226ZM172.614 28.828C172.007 28.828 171.505 28.6373 171.106 28.256C170.725 27.8747 170.534 27.4153 170.534 26.878C170.534 26.3233 170.725 25.864 171.106 25.5C171.505 25.1187 172.007 24.928 172.614 24.928C173.221 24.928 173.715 25.11 174.096 25.474C174.495 25.8207 174.694 26.2627 174.694 26.8C174.694 27.372 174.503 27.8573 174.122 28.256C173.741 28.6373 173.238 28.828 172.614 28.828ZM185.04 45.182C183.497 45.182 182.145 44.8787 180.984 44.272C179.84 43.648 178.947 42.7987 178.306 41.724C177.682 40.6493 177.37 39.4273 177.37 38.058C177.37 36.6713 177.673 35.4493 178.28 34.392C178.904 33.3173 179.753 32.4767 180.828 31.87C181.92 31.2633 183.159 30.96 184.546 30.96C185.898 30.96 187.103 31.2547 188.16 31.844C189.217 32.4333 190.049 33.2653 190.656 34.34C191.263 35.4147 191.566 36.68 191.566 38.136C191.566 38.2747 191.557 38.4307 191.54 38.604C191.54 38.7773 191.531 38.942 191.514 39.098H179.944V36.94H189.798L188.524 37.616C188.541 36.8187 188.377 36.1167 188.03 35.51C187.683 34.9033 187.207 34.4267 186.6 34.08C186.011 33.7333 185.326 33.56 184.546 33.56C183.749 33.56 183.047 33.7333 182.44 34.08C181.851 34.4267 181.383 34.912 181.036 35.536C180.707 36.1427 180.542 36.862 180.542 37.694V38.214C180.542 39.046 180.733 39.7827 181.114 40.424C181.495 41.0653 182.033 41.5593 182.726 41.906C183.419 42.2527 184.217 42.426 185.118 42.426C185.898 42.426 186.6 42.3047 187.224 42.062C187.848 41.8193 188.403 41.438 188.888 40.918L190.63 42.92C190.006 43.648 189.217 44.2113 188.264 44.61C187.328 44.9913 186.253 45.182 185.04 45.182ZM201.058 45.182C199.602 45.182 198.302 44.8787 197.158 44.272C196.031 43.648 195.147 42.7987 194.506 41.724C193.864 40.6493 193.544 39.4273 193.544 38.058C193.544 36.6713 193.864 35.4493 194.506 34.392C195.147 33.3173 196.031 32.4767 197.158 31.87C198.302 31.2633 199.602 30.96 201.058 30.96C202.41 30.96 203.597 31.2373 204.62 31.792C205.66 32.3293 206.448 33.1267 206.986 34.184L204.49 35.64C204.074 34.9813 203.562 34.496 202.956 34.184C202.366 33.872 201.725 33.716 201.032 33.716C200.234 33.716 199.515 33.8893 198.874 34.236C198.232 34.5827 197.73 35.0853 197.366 35.744C197.002 36.3853 196.82 37.1567 196.82 38.058C196.82 38.9593 197.002 39.7393 197.366 40.398C197.73 41.0393 198.232 41.5333 198.874 41.88C199.515 42.2267 200.234 42.4 201.032 42.4C201.725 42.4 202.366 42.244 202.956 41.932C203.562 41.62 204.074 41.1347 204.49 40.476L206.986 41.932C206.448 42.972 205.66 43.778 204.62 44.35C203.597 44.9047 202.41 45.182 201.058 45.182ZM215.199 45.182C213.673 45.182 212.495 44.792 211.663 44.012C210.831 43.2147 210.415 42.0447 210.415 40.502V28.048H213.665V40.424C213.665 41.0827 213.829 41.594 214.159 41.958C214.505 42.322 214.982 42.504 215.589 42.504C216.317 42.504 216.923 42.3133 217.409 41.932L218.319 44.246C217.937 44.558 217.469 44.792 216.915 44.948C216.36 45.104 215.788 45.182 215.199 45.182ZM208.127 33.82V31.22H217.383V33.82H208.127Z" fill="white"/>
</svg>
